<<<<<<< Updated upstream
<mxfile host="app.diagrams.net" modified="2024-04-04T16:06:26.402Z" agent="Mozilla/5.0 (Windows NT 10.0; Win64; x64) AppleWebKit/537.36 (KHTML, like Gecko) Chrome/123.0.0.0 Safari/537.36" etag="9Ii9e2OpMbtkarUzab7Y" version="24.2.2" type="github">
=======
<mxfile host="app.diagrams.net" modified="2024-04-04T16:00:17.803Z" agent="Mozilla/5.0 (Windows NT 10.0; Win64; x64) AppleWebKit/537.36 (KHTML, like Gecko) Chrome/123.0.0.0 Safari/537.36" etag="vqoPJM-lKrfoi2BJpVqU" version="24.2.2" type="device">
>>>>>>> Stashed changes
  <diagram name="第 1 页" id="PssSNF6BeO3fLNbDdDAi">
    <mxGraphModel dx="2048" dy="485" grid="1" gridSize="10" guides="1" tooltips="1" connect="1" arrows="1" fold="1" page="1" pageScale="1" pageWidth="827" pageHeight="1169" background="none" math="0" shadow="0">
      <root>
        <mxCell id="0" />
        <mxCell id="1" parent="0" />
        <mxCell id="cr4Tv0wh2eHZyD_6rU1V-1" value="role" style="rounded=1;whiteSpace=wrap;html=1;" vertex="1" parent="1">
          <mxGeometry x="-300" y="380" width="160" height="60" as="geometry" />
        </mxCell>
        <mxCell id="cr4Tv0wh2eHZyD_6rU1V-5" value="role_id" style="ellipse;whiteSpace=wrap;html=1;rounded=1;" vertex="1" parent="1">
          <mxGeometry x="-460" y="350" width="100" height="50" as="geometry" />
        </mxCell>
        <mxCell id="cr4Tv0wh2eHZyD_6rU1V-6" value="name" style="ellipse;whiteSpace=wrap;html=1;rounded=1;" vertex="1" parent="1">
          <mxGeometry x="-460" y="420" width="100" height="50" as="geometry" />
        </mxCell>
        <mxCell id="cr4Tv0wh2eHZyD_6rU1V-20" value="" style="endArrow=none;html=1;rounded=1;entryX=1;entryY=0.5;entryDx=0;entryDy=0;" edge="1" parent="1" source="cr4Tv0wh2eHZyD_6rU1V-1" target="cr4Tv0wh2eHZyD_6rU1V-6">
          <mxGeometry width="50" height="50" relative="1" as="geometry">
            <mxPoint x="-290" y="440" as="sourcePoint" />
            <mxPoint x="-330" y="480" as="targetPoint" />
          </mxGeometry>
        </mxCell>
        <mxCell id="cr4Tv0wh2eHZyD_6rU1V-21" value="" style="endArrow=none;html=1;rounded=1;entryX=1;entryY=0.5;entryDx=0;entryDy=0;exitX=0;exitY=0.25;exitDx=0;exitDy=0;" edge="1" parent="1" source="cr4Tv0wh2eHZyD_6rU1V-1" target="cr4Tv0wh2eHZyD_6rU1V-5">
          <mxGeometry width="50" height="50" relative="1" as="geometry">
            <mxPoint x="-250" y="400" as="sourcePoint" />
            <mxPoint x="-360" y="400" as="targetPoint" />
          </mxGeometry>
        </mxCell>
        <mxCell id="cr4Tv0wh2eHZyD_6rU1V-28" value="user" style="rounded=1;whiteSpace=wrap;html=1;" vertex="1" parent="1">
          <mxGeometry x="80" y="380" width="160" height="60" as="geometry" />
        </mxCell>
        <mxCell id="cr4Tv0wh2eHZyD_6rU1V-29" value="user_id" style="ellipse;whiteSpace=wrap;html=1;rounded=1;" vertex="1" parent="1">
          <mxGeometry x="330" y="385" width="100" height="50" as="geometry" />
        </mxCell>
        <mxCell id="cr4Tv0wh2eHZyD_6rU1V-33" value="is" style="shape=rhombus;perimeter=rhombusPerimeter;whiteSpace=wrap;html=1;align=center;rounded=1;" vertex="1" parent="1">
          <mxGeometry x="-70" y="390" width="80" height="40" as="geometry" />
        </mxCell>
        <mxCell id="cr4Tv0wh2eHZyD_6rU1V-35" value="" style="endArrow=none;html=1;rounded=0;exitX=1;exitY=0.5;exitDx=0;exitDy=0;" edge="1" parent="1" source="cr4Tv0wh2eHZyD_6rU1V-1" target="cr4Tv0wh2eHZyD_6rU1V-33">
          <mxGeometry relative="1" as="geometry">
            <mxPoint x="-30" y="545" as="sourcePoint" />
            <mxPoint x="130" y="545" as="targetPoint" />
          </mxGeometry>
        </mxCell>
        <mxCell id="cr4Tv0wh2eHZyD_6rU1V-38" value="" style="endArrow=none;html=1;rounded=0;exitX=0;exitY=0.5;exitDx=0;exitDy=0;entryX=1;entryY=0.5;entryDx=0;entryDy=0;" edge="1" parent="1" source="cr4Tv0wh2eHZyD_6rU1V-29" target="cr4Tv0wh2eHZyD_6rU1V-28">
          <mxGeometry relative="1" as="geometry">
            <mxPoint x="160" y="350" as="sourcePoint" />
            <mxPoint x="159.5" y="380" as="targetPoint" />
          </mxGeometry>
        </mxCell>
        <mxCell id="cr4Tv0wh2eHZyD_6rU1V-64" value="teacher" style="rounded=1;whiteSpace=wrap;html=1;" vertex="1" parent="1">
          <mxGeometry x="80" y="510" width="150" height="100" as="geometry" />
        </mxCell>
        <mxCell id="cr4Tv0wh2eHZyD_6rU1V-66" value="total_credit" style="ellipse;whiteSpace=wrap;html=1;rounded=1;" vertex="1" parent="1">
          <mxGeometry x="-30" y="570" width="100" height="50" as="geometry" />
        </mxCell>
        <mxCell id="cr4Tv0wh2eHZyD_6rU1V-67" value="" style="endArrow=none;html=1;rounded=1;exitX=0;exitY=0.75;exitDx=0;exitDy=0;entryX=1;entryY=0.5;entryDx=0;entryDy=0;" edge="1" parent="1" source="cr4Tv0wh2eHZyD_6rU1V-64" target="cr4Tv0wh2eHZyD_6rU1V-66">
          <mxGeometry width="50" height="50" relative="1" as="geometry">
            <mxPoint x="90" y="590.0200000000001" as="sourcePoint" />
            <mxPoint x="240" y="460" as="targetPoint" />
          </mxGeometry>
        </mxCell>
        <mxCell id="cr4Tv0wh2eHZyD_6rU1V-69" value="t_id" style="ellipse;whiteSpace=wrap;html=1;rounded=1;" vertex="1" parent="1">
          <mxGeometry x="-30" y="500" width="100" height="50" as="geometry" />
        </mxCell>
        <mxCell id="cr4Tv0wh2eHZyD_6rU1V-74" value="" style="endArrow=none;html=1;rounded=1;entryX=1;entryY=0.5;entryDx=0;entryDy=0;exitX=0;exitY=0.25;exitDx=0;exitDy=0;" edge="1" parent="1" source="cr4Tv0wh2eHZyD_6rU1V-64" target="cr4Tv0wh2eHZyD_6rU1V-69">
          <mxGeometry width="50" height="50" relative="1" as="geometry">
            <mxPoint x="210" y="570" as="sourcePoint" />
            <mxPoint x="250" y="520" as="targetPoint" />
          </mxGeometry>
        </mxCell>
        <mxCell id="cr4Tv0wh2eHZyD_6rU1V-75" value="admin" style="rounded=1;whiteSpace=wrap;html=1;" vertex="1" parent="1">
          <mxGeometry x="-277.5" y="550" width="150" height="100" as="geometry" />
        </mxCell>
        <mxCell id="cr4Tv0wh2eHZyD_6rU1V-76" value="total_credit" style="ellipse;whiteSpace=wrap;html=1;rounded=1;" vertex="1" parent="1">
          <mxGeometry x="-190" y="470" width="100" height="50" as="geometry" />
        </mxCell>
        <mxCell id="cr4Tv0wh2eHZyD_6rU1V-77" value="" style="endArrow=none;html=1;rounded=1;entryX=0.5;entryY=1;entryDx=0;entryDy=0;exitX=0.75;exitY=0;exitDx=0;exitDy=0;" edge="1" parent="1" source="cr4Tv0wh2eHZyD_6rU1V-75" target="cr4Tv0wh2eHZyD_6rU1V-76">
          <mxGeometry width="50" height="50" relative="1" as="geometry">
            <mxPoint x="-240" y="590.0200000000001" as="sourcePoint" />
            <mxPoint x="-100" y="520" as="targetPoint" />
          </mxGeometry>
        </mxCell>
        <mxCell id="cr4Tv0wh2eHZyD_6rU1V-78" value="a_id" style="ellipse;whiteSpace=wrap;html=1;rounded=1;" vertex="1" parent="1">
          <mxGeometry x="-300" y="470" width="100" height="50" as="geometry" />
        </mxCell>
        <mxCell id="cr4Tv0wh2eHZyD_6rU1V-79" value="" style="endArrow=none;html=1;rounded=1;entryX=0.5;entryY=1;entryDx=0;entryDy=0;exitX=0.25;exitY=0;exitDx=0;exitDy=0;" edge="1" parent="1" source="cr4Tv0wh2eHZyD_6rU1V-75" target="cr4Tv0wh2eHZyD_6rU1V-78">
          <mxGeometry width="50" height="50" relative="1" as="geometry">
            <mxPoint x="-120" y="570" as="sourcePoint" />
            <mxPoint x="-80" y="520" as="targetPoint" />
          </mxGeometry>
        </mxCell>
        <mxCell id="cr4Tv0wh2eHZyD_6rU1V-80" value="student" style="rounded=1;whiteSpace=wrap;html=1;" vertex="1" parent="1">
          <mxGeometry x="465" y="550" width="150" height="100" as="geometry" />
        </mxCell>
        <mxCell id="cr4Tv0wh2eHZyD_6rU1V-81" value="stu_num" style="ellipse;whiteSpace=wrap;html=1;rounded=1;" vertex="1" parent="1">
          <mxGeometry x="605" y="460" width="100" height="50" as="geometry" />
        </mxCell>
        <mxCell id="cr4Tv0wh2eHZyD_6rU1V-82" value="total_credit" style="ellipse;whiteSpace=wrap;html=1;rounded=1;" vertex="1" parent="1">
          <mxGeometry x="490" y="460" width="100" height="50" as="geometry" />
        </mxCell>
        <mxCell id="cr4Tv0wh2eHZyD_6rU1V-83" value="" style="endArrow=none;html=1;rounded=1;entryX=0.5;entryY=1;entryDx=0;entryDy=0;exitX=0.5;exitY=0;exitDx=0;exitDy=0;" edge="1" parent="1" source="cr4Tv0wh2eHZyD_6rU1V-80" target="cr4Tv0wh2eHZyD_6rU1V-82">
          <mxGeometry width="50" height="50" relative="1" as="geometry">
            <mxPoint x="475" y="590.0200000000001" as="sourcePoint" />
            <mxPoint x="525" y="520" as="targetPoint" />
          </mxGeometry>
        </mxCell>
        <mxCell id="cr4Tv0wh2eHZyD_6rU1V-84" value="" style="endArrow=none;html=1;rounded=1;exitX=0.75;exitY=0;exitDx=0;exitDy=0;entryX=0.5;entryY=1;entryDx=0;entryDy=0;" edge="1" parent="1" source="cr4Tv0wh2eHZyD_6rU1V-80" target="cr4Tv0wh2eHZyD_6rU1V-81">
          <mxGeometry width="50" height="50" relative="1" as="geometry">
            <mxPoint x="555" y="435" as="sourcePoint" />
            <mxPoint x="495" y="440" as="targetPoint" />
          </mxGeometry>
        </mxCell>
        <mxCell id="cr4Tv0wh2eHZyD_6rU1V-85" value="stu_id" style="ellipse;whiteSpace=wrap;html=1;rounded=1;" vertex="1" parent="1">
          <mxGeometry x="375" y="460" width="100" height="50" as="geometry" />
        </mxCell>
        <mxCell id="cr4Tv0wh2eHZyD_6rU1V-86" value="" style="endArrow=none;html=1;rounded=1;exitX=0.25;exitY=0;exitDx=0;exitDy=0;entryX=0.5;entryY=1;entryDx=0;entryDy=0;" edge="1" parent="1" source="cr4Tv0wh2eHZyD_6rU1V-80" target="cr4Tv0wh2eHZyD_6rU1V-85">
          <mxGeometry width="50" height="50" relative="1" as="geometry">
            <mxPoint x="455" y="645" as="sourcePoint" />
            <mxPoint x="475" y="615" as="targetPoint" />
          </mxGeometry>
        </mxCell>
        <mxCell id="cr4Tv0wh2eHZyD_6rU1V-88" value="" style="endArrow=none;html=1;rounded=0;exitX=0;exitY=0.5;exitDx=0;exitDy=0;entryX=1;entryY=0.5;entryDx=0;entryDy=0;" edge="1" parent="1" source="cr4Tv0wh2eHZyD_6rU1V-28" target="cr4Tv0wh2eHZyD_6rU1V-33">
          <mxGeometry relative="1" as="geometry">
            <mxPoint x="-130" y="420.5" as="sourcePoint" />
            <mxPoint x="-60" y="420.5" as="targetPoint" />
          </mxGeometry>
        </mxCell>
        <mxCell id="cr4Tv0wh2eHZyD_6rU1V-89" value="software" style="rounded=1;whiteSpace=wrap;html=1;" vertex="1" parent="1">
          <mxGeometry x="430" y="800" width="160" height="110" as="geometry" />
        </mxCell>
        <mxCell id="cr4Tv0wh2eHZyD_6rU1V-90" value="discription" style="ellipse;whiteSpace=wrap;html=1;rounded=1;" vertex="1" parent="1">
          <mxGeometry x="650" y="900" width="100" height="50" as="geometry" />
        </mxCell>
        <mxCell id="cr4Tv0wh2eHZyD_6rU1V-91" value="topic" style="ellipse;whiteSpace=wrap;html=1;rounded=1;" vertex="1" parent="1">
          <mxGeometry x="650" y="830" width="100" height="50" as="geometry" />
        </mxCell>
        <mxCell id="cr4Tv0wh2eHZyD_6rU1V-92" value="" style="endArrow=none;html=1;rounded=1;entryX=0;entryY=0.5;entryDx=0;entryDy=0;exitX=1;exitY=0.5;exitDx=0;exitDy=0;" edge="1" parent="1" source="cr4Tv0wh2eHZyD_6rU1V-89" target="cr4Tv0wh2eHZyD_6rU1V-91">
          <mxGeometry width="50" height="50" relative="1" as="geometry">
            <mxPoint x="440" y="840.0200000000001" as="sourcePoint" />
            <mxPoint x="490" y="770" as="targetPoint" />
          </mxGeometry>
        </mxCell>
        <mxCell id="cr4Tv0wh2eHZyD_6rU1V-93" value="" style="endArrow=none;html=1;rounded=1;exitX=1;exitY=0.75;exitDx=0;exitDy=0;entryX=0;entryY=0.5;entryDx=0;entryDy=0;" edge="1" parent="1" source="cr4Tv0wh2eHZyD_6rU1V-89" target="cr4Tv0wh2eHZyD_6rU1V-90">
          <mxGeometry width="50" height="50" relative="1" as="geometry">
            <mxPoint x="520" y="685" as="sourcePoint" />
            <mxPoint x="460" y="690" as="targetPoint" />
          </mxGeometry>
        </mxCell>
        <mxCell id="cr4Tv0wh2eHZyD_6rU1V-94" value="sw_id" style="ellipse;whiteSpace=wrap;html=1;rounded=1;" vertex="1" parent="1">
          <mxGeometry x="650" y="760" width="100" height="50" as="geometry" />
        </mxCell>
        <mxCell id="cr4Tv0wh2eHZyD_6rU1V-95" value="" style="endArrow=none;html=1;rounded=1;exitX=1;exitY=0.25;exitDx=0;exitDy=0;entryX=0;entryY=0.5;entryDx=0;entryDy=0;" edge="1" parent="1" source="cr4Tv0wh2eHZyD_6rU1V-89" target="cr4Tv0wh2eHZyD_6rU1V-94">
          <mxGeometry width="50" height="50" relative="1" as="geometry">
            <mxPoint x="420" y="895" as="sourcePoint" />
            <mxPoint x="440" y="865" as="targetPoint" />
          </mxGeometry>
        </mxCell>
        <mxCell id="cr4Tv0wh2eHZyD_6rU1V-96" value="tag_type" style="rounded=1;whiteSpace=wrap;html=1;" vertex="1" parent="1">
          <mxGeometry x="-177.5" y="920" width="160" height="60" as="geometry" />
        </mxCell>
        <mxCell id="cr4Tv0wh2eHZyD_6rU1V-98" value="name" style="ellipse;whiteSpace=wrap;html=1;rounded=1;" vertex="1" parent="1">
          <mxGeometry x="-330" y="960" width="100" height="50" as="geometry" />
        </mxCell>
        <mxCell id="cr4Tv0wh2eHZyD_6rU1V-99" value="" style="endArrow=none;html=1;rounded=1;entryX=1;entryY=0.5;entryDx=0;entryDy=0;exitX=0;exitY=0.75;exitDx=0;exitDy=0;" edge="1" parent="1" source="cr4Tv0wh2eHZyD_6rU1V-96" target="cr4Tv0wh2eHZyD_6rU1V-98">
          <mxGeometry width="50" height="50" relative="1" as="geometry">
            <mxPoint x="-102.5" y="950.02" as="sourcePoint" />
            <mxPoint x="27.5" y="870" as="targetPoint" />
          </mxGeometry>
        </mxCell>
        <mxCell id="cr4Tv0wh2eHZyD_6rU1V-101" value="tt_id" style="ellipse;whiteSpace=wrap;html=1;rounded=1;" vertex="1" parent="1">
          <mxGeometry x="-330" y="900" width="100" height="50" as="geometry" />
        </mxCell>
        <mxCell id="cr4Tv0wh2eHZyD_6rU1V-102" value="" style="endArrow=none;html=1;rounded=1;exitX=0;exitY=0.25;exitDx=0;exitDy=0;entryX=1;entryY=0.5;entryDx=0;entryDy=0;" edge="1" parent="1" source="cr4Tv0wh2eHZyD_6rU1V-96" target="cr4Tv0wh2eHZyD_6rU1V-101">
          <mxGeometry width="50" height="50" relative="1" as="geometry">
            <mxPoint x="-122.5" y="1005" as="sourcePoint" />
            <mxPoint x="-102.5" y="975" as="targetPoint" />
          </mxGeometry>
        </mxCell>
        <mxCell id="cr4Tv0wh2eHZyD_6rU1V-103" value="belong" style="shape=rhombus;perimeter=rhombusPerimeter;whiteSpace=wrap;html=1;align=center;rounded=1;" vertex="1" parent="1">
          <mxGeometry x="580" y="690" width="80" height="40" as="geometry" />
        </mxCell>
        <mxCell id="cr4Tv0wh2eHZyD_6rU1V-104" value="" style="endArrow=none;html=1;rounded=0;exitX=0.75;exitY=0;exitDx=0;exitDy=0;entryX=0.5;entryY=1;entryDx=0;entryDy=0;" edge="1" parent="1" target="cr4Tv0wh2eHZyD_6rU1V-103" source="cr4Tv0wh2eHZyD_6rU1V-89">
          <mxGeometry relative="1" as="geometry">
            <mxPoint x="660" y="730.5" as="sourcePoint" />
            <mxPoint x="853.2978723404258" y="789.1489361702127" as="targetPoint" />
            <Array as="points" />
          </mxGeometry>
        </mxCell>
        <mxCell id="cr4Tv0wh2eHZyD_6rU1V-105" value="" style="endArrow=none;html=1;rounded=0;exitX=0.75;exitY=1;exitDx=0;exitDy=0;entryX=0.5;entryY=0;entryDx=0;entryDy=0;" edge="1" parent="1" target="cr4Tv0wh2eHZyD_6rU1V-103" source="cr4Tv0wh2eHZyD_6rU1V-80">
          <mxGeometry relative="1" as="geometry">
            <mxPoint x="545" y="650.5" as="sourcePoint" />
            <mxPoint x="585" y="690" as="targetPoint" />
            <Array as="points" />
          </mxGeometry>
        </mxCell>
        <mxCell id="cr4Tv0wh2eHZyD_6rU1V-106" value="average_score" style="ellipse;whiteSpace=wrap;html=1;rounded=1;" vertex="1" parent="1">
          <mxGeometry x="590" y="960" width="100" height="50" as="geometry" />
        </mxCell>
        <mxCell id="cr4Tv0wh2eHZyD_6rU1V-107" value="upload_success" style="ellipse;whiteSpace=wrap;html=1;rounded=1;" vertex="1" parent="1">
          <mxGeometry x="460" y="960" width="100" height="50" as="geometry" />
        </mxCell>
        <mxCell id="cr4Tv0wh2eHZyD_6rU1V-108" value="time" style="ellipse;whiteSpace=wrap;html=1;rounded=1;" vertex="1" parent="1">
          <mxGeometry x="330" y="960" width="100" height="50" as="geometry" />
        </mxCell>
        <mxCell id="cr4Tv0wh2eHZyD_6rU1V-109" value="" style="endArrow=none;html=1;rounded=1;exitX=0.5;exitY=0;exitDx=0;exitDy=0;entryX=0.5;entryY=1;entryDx=0;entryDy=0;" edge="1" parent="1" source="cr4Tv0wh2eHZyD_6rU1V-107" target="cr4Tv0wh2eHZyD_6rU1V-89">
          <mxGeometry width="50" height="50" relative="1" as="geometry">
            <mxPoint x="510" y="970" as="sourcePoint" />
            <mxPoint x="510" y="930" as="targetPoint" />
          </mxGeometry>
        </mxCell>
        <mxCell id="cr4Tv0wh2eHZyD_6rU1V-110" value="" style="endArrow=none;html=1;rounded=1;exitX=0.75;exitY=1;exitDx=0;exitDy=0;entryX=0.5;entryY=0;entryDx=0;entryDy=0;" edge="1" parent="1" source="cr4Tv0wh2eHZyD_6rU1V-89" target="cr4Tv0wh2eHZyD_6rU1V-106">
          <mxGeometry width="50" height="50" relative="1" as="geometry">
            <mxPoint x="550" y="930" as="sourcePoint" />
            <mxPoint x="640" y="930" as="targetPoint" />
          </mxGeometry>
        </mxCell>
        <mxCell id="cr4Tv0wh2eHZyD_6rU1V-111" value="" style="endArrow=none;html=1;rounded=1;exitX=0.25;exitY=1;exitDx=0;exitDy=0;entryX=0.5;entryY=0;entryDx=0;entryDy=0;" edge="1" parent="1" source="cr4Tv0wh2eHZyD_6rU1V-89" target="cr4Tv0wh2eHZyD_6rU1V-108">
          <mxGeometry width="50" height="50" relative="1" as="geometry">
            <mxPoint x="470" y="930" as="sourcePoint" />
            <mxPoint x="380" y="930" as="targetPoint" />
          </mxGeometry>
        </mxCell>
        <mxCell id="cr4Tv0wh2eHZyD_6rU1V-112" value="" style="endArrow=none;html=1;rounded=0;exitX=1;exitY=0.5;exitDx=0;exitDy=0;entryX=0;entryY=1;entryDx=0;entryDy=0;" edge="1" parent="1" source="cr4Tv0wh2eHZyD_6rU1V-114" target="cr4Tv0wh2eHZyD_6rU1V-188">
          <mxGeometry relative="1" as="geometry">
            <mxPoint x="315" y="700" as="sourcePoint" />
            <mxPoint x="240" y="860" as="targetPoint" />
          </mxGeometry>
        </mxCell>
        <mxCell id="cr4Tv0wh2eHZyD_6rU1V-114" value="tags" style="shape=ext;margin=3;double=1;whiteSpace=wrap;html=1;align=center;rounded=1;" vertex="1" parent="1">
          <mxGeometry x="140" y="930" width="100" height="40" as="geometry" />
        </mxCell>
        <mxCell id="cr4Tv0wh2eHZyD_6rU1V-116" value="" style="endArrow=none;html=1;rounded=0;exitX=1;exitY=0.5;exitDx=0;exitDy=0;entryX=0;entryY=0.5;entryDx=0;entryDy=0;" edge="1" parent="1" source="cr4Tv0wh2eHZyD_6rU1V-96" target="cr4Tv0wh2eHZyD_6rU1V-191">
          <mxGeometry relative="1" as="geometry">
            <mxPoint x="1200" y="699.38" as="sourcePoint" />
            <mxPoint x="75" y="930" as="targetPoint" />
          </mxGeometry>
        </mxCell>
        <mxCell id="cr4Tv0wh2eHZyD_6rU1V-117" value="" style="endArrow=none;html=1;rounded=1;entryX=0.5;entryY=1;entryDx=0;entryDy=0;exitX=0.5;exitY=0;exitDx=0;exitDy=0;" edge="1" parent="1" source="cr4Tv0wh2eHZyD_6rU1V-121" target="cr4Tv0wh2eHZyD_6rU1V-28">
          <mxGeometry width="50" height="50" relative="1" as="geometry">
            <mxPoint x="155" y="560" as="sourcePoint" />
            <mxPoint x="505" y="530" as="targetPoint" />
          </mxGeometry>
        </mxCell>
        <mxCell id="cr4Tv0wh2eHZyD_6rU1V-118" value="" style="endArrow=none;html=1;rounded=1;entryX=1;entryY=0.75;entryDx=0;entryDy=0;exitX=0;exitY=0;exitDx=0;exitDy=0;" edge="1" parent="1" source="cr4Tv0wh2eHZyD_6rU1V-120" target="cr4Tv0wh2eHZyD_6rU1V-28">
          <mxGeometry width="50" height="50" relative="1" as="geometry">
            <mxPoint x="515" y="580" as="sourcePoint" />
            <mxPoint x="515" y="540" as="targetPoint" />
<<<<<<< Updated upstream
            <Array as="points" />
          </mxGeometry>
        </mxCell>
        <mxCell id="cr4Tv0wh2eHZyD_6rU1V-120" value="belong" style="shape=rhombus;perimeter=rhombusPerimeter;whiteSpace=wrap;html=1;align=center;rounded=1;" vertex="1" parent="1">
          <mxGeometry x="375" y="530" width="80" height="40" as="geometry" />
=======
            <Array as="points">
              <mxPoint x="300" y="440" />
            </Array>
          </mxGeometry>
        </mxCell>
        <mxCell id="cr4Tv0wh2eHZyD_6rU1V-120" value="belong" style="shape=rhombus;perimeter=rhombusPerimeter;whiteSpace=wrap;html=1;align=center;rounded=1;" vertex="1" parent="1">
          <mxGeometry x="360" y="530" width="80" height="40" as="geometry" />
>>>>>>> Stashed changes
        </mxCell>
        <mxCell id="cr4Tv0wh2eHZyD_6rU1V-123" value="" style="endArrow=none;html=1;rounded=1;entryX=0;entryY=1;entryDx=0;entryDy=0;exitX=1;exitY=0.25;exitDx=0;exitDy=0;" edge="1" parent="1" source="cr4Tv0wh2eHZyD_6rU1V-75" target="cr4Tv0wh2eHZyD_6rU1V-122">
          <mxGeometry width="50" height="50" relative="1" as="geometry">
            <mxPoint x="-100" y="610" as="sourcePoint" />
            <mxPoint x="120" y="385" as="targetPoint" />
            <Array as="points" />
          </mxGeometry>
        </mxCell>
        <mxCell id="cr4Tv0wh2eHZyD_6rU1V-122" value="belong" style="shape=rhombus;perimeter=rhombusPerimeter;whiteSpace=wrap;html=1;align=center;rounded=1;" vertex="1" parent="1">
          <mxGeometry x="-120" y="520" width="80" height="40" as="geometry" />
        </mxCell>
        <mxCell id="cr4Tv0wh2eHZyD_6rU1V-124" value="" style="endArrow=none;html=1;rounded=1;exitX=0;exitY=0.25;exitDx=0;exitDy=0;entryX=1;entryY=1;entryDx=0;entryDy=0;" edge="1" parent="1" source="cr4Tv0wh2eHZyD_6rU1V-80" target="cr4Tv0wh2eHZyD_6rU1V-120">
          <mxGeometry width="50" height="50" relative="1" as="geometry">
            <mxPoint x="-90" y="620" as="sourcePoint" />
            <mxPoint x="-53" y="583" as="targetPoint" />
            <Array as="points" />
          </mxGeometry>
        </mxCell>
        <mxCell id="cr4Tv0wh2eHZyD_6rU1V-125" value="comment" style="rounded=1;whiteSpace=wrap;html=1;" vertex="1" parent="1">
          <mxGeometry x="80" y="820" width="160" height="60" as="geometry" />
        </mxCell>
        <mxCell id="cr4Tv0wh2eHZyD_6rU1V-126" value="time" style="ellipse;whiteSpace=wrap;html=1;rounded=1;" vertex="1" parent="1">
          <mxGeometry x="-50" y="860" width="100" height="50" as="geometry" />
        </mxCell>
        <mxCell id="cr4Tv0wh2eHZyD_6rU1V-127" value="" style="endArrow=none;html=1;rounded=1;entryX=1;entryY=0.5;entryDx=0;entryDy=0;exitX=0;exitY=0.75;exitDx=0;exitDy=0;" edge="1" parent="1" source="cr4Tv0wh2eHZyD_6rU1V-125" target="cr4Tv0wh2eHZyD_6rU1V-126">
          <mxGeometry width="50" height="50" relative="1" as="geometry">
            <mxPoint x="110" y="930.0200000000001" as="sourcePoint" />
            <mxPoint x="250" y="850" as="targetPoint" />
          </mxGeometry>
        </mxCell>
        <mxCell id="cr4Tv0wh2eHZyD_6rU1V-128" value="c_id" style="ellipse;whiteSpace=wrap;html=1;rounded=1;" vertex="1" parent="1">
          <mxGeometry x="-50" y="795" width="100" height="50" as="geometry" />
        </mxCell>
        <mxCell id="cr4Tv0wh2eHZyD_6rU1V-129" value="" style="endArrow=none;html=1;rounded=1;exitX=0;exitY=0.25;exitDx=0;exitDy=0;entryX=1;entryY=0.5;entryDx=0;entryDy=0;" edge="1" parent="1" source="cr4Tv0wh2eHZyD_6rU1V-125" target="cr4Tv0wh2eHZyD_6rU1V-128">
          <mxGeometry width="50" height="50" relative="1" as="geometry">
            <mxPoint x="90" y="985" as="sourcePoint" />
            <mxPoint x="110" y="955" as="targetPoint" />
          </mxGeometry>
        </mxCell>
        <mxCell id="cr4Tv0wh2eHZyD_6rU1V-131" value="" style="endArrow=none;html=1;rounded=0;exitX=0;exitY=0.5;exitDx=0;exitDy=0;entryX=1;entryY=0.5;entryDx=0;entryDy=0;" edge="1" parent="1" source="cr4Tv0wh2eHZyD_6rU1V-89" target="cr4Tv0wh2eHZyD_6rU1V-132">
          <mxGeometry relative="1" as="geometry">
            <mxPoint x="320" y="839.38" as="sourcePoint" />
            <mxPoint x="120" y="839.38" as="targetPoint" />
          </mxGeometry>
        </mxCell>
        <mxCell id="cr4Tv0wh2eHZyD_6rU1V-132" value="has" style="shape=rhombus;perimeter=rhombusPerimeter;whiteSpace=wrap;html=1;align=center;rounded=1;" vertex="1" parent="1">
<<<<<<< Updated upstream
          <mxGeometry x="320" y="835" width="80" height="40" as="geometry" />
=======
          <mxGeometry x="320" y="830" width="80" height="40" as="geometry" />
>>>>>>> Stashed changes
        </mxCell>
        <mxCell id="cr4Tv0wh2eHZyD_6rU1V-133" value="" style="endArrow=none;html=1;rounded=0;exitX=0;exitY=0.5;exitDx=0;exitDy=0;entryX=1;entryY=0.75;entryDx=0;entryDy=0;" edge="1" parent="1" source="cr4Tv0wh2eHZyD_6rU1V-132" target="cr4Tv0wh2eHZyD_6rU1V-125">
          <mxGeometry relative="1" as="geometry">
            <mxPoint x="470" y="925" as="sourcePoint" />
            <mxPoint x="260" y="915" as="targetPoint" />
          </mxGeometry>
        </mxCell>
        <mxCell id="cr4Tv0wh2eHZyD_6rU1V-135" value="" style="endArrow=none;html=1;rounded=0;exitX=0.5;exitY=0;exitDx=0;exitDy=0;" edge="1" parent="1" source="cr4Tv0wh2eHZyD_6rU1V-136">
          <mxGeometry relative="1" as="geometry">
            <mxPoint x="550" y="870" as="sourcePoint" />
            <mxPoint x="540" y="650" as="targetPoint" />
            <Array as="points" />
          </mxGeometry>
        </mxCell>
        <mxCell id="cr4Tv0wh2eHZyD_6rU1V-136" value="add" style="shape=rhombus;perimeter=rhombusPerimeter;whiteSpace=wrap;html=1;align=center;rounded=1;" vertex="1" parent="1">
          <mxGeometry x="490" y="690" width="80" height="40" as="geometry" />
        </mxCell>
        <mxCell id="cr4Tv0wh2eHZyD_6rU1V-137" value="add" style="shape=rhombus;perimeter=rhombusPerimeter;whiteSpace=wrap;html=1;align=center;rounded=1;" vertex="1" parent="1">
          <mxGeometry x="160" y="660" width="80" height="40" as="geometry" />
        </mxCell>
        <mxCell id="cr4Tv0wh2eHZyD_6rU1V-140" value="" style="endArrow=none;html=1;rounded=0;exitX=1;exitY=0.5;exitDx=0;exitDy=0;entryX=0;entryY=1;entryDx=0;entryDy=0;" edge="1" parent="1" source="cr4Tv0wh2eHZyD_6rU1V-125" target="cr4Tv0wh2eHZyD_6rU1V-136">
          <mxGeometry relative="1" as="geometry">
            <mxPoint x="550" y="870" as="sourcePoint" />
            <mxPoint x="550" y="750" as="targetPoint" />
            <Array as="points" />
          </mxGeometry>
        </mxCell>
        <mxCell id="cr4Tv0wh2eHZyD_6rU1V-141" value="" style="endArrow=none;html=1;rounded=0;exitX=0.5;exitY=0;exitDx=0;exitDy=0;entryX=0.75;entryY=1;entryDx=0;entryDy=0;" edge="1" parent="1" source="cr4Tv0wh2eHZyD_6rU1V-137" target="cr4Tv0wh2eHZyD_6rU1V-64">
          <mxGeometry relative="1" as="geometry">
            <mxPoint x="560" y="880" as="sourcePoint" />
            <mxPoint x="560" y="760" as="targetPoint" />
            <Array as="points" />
          </mxGeometry>
        </mxCell>
        <mxCell id="cr4Tv0wh2eHZyD_6rU1V-142" value="" style="endArrow=none;html=1;rounded=0;exitX=0.75;exitY=0;exitDx=0;exitDy=0;entryX=0.5;entryY=1;entryDx=0;entryDy=0;" edge="1" parent="1" source="cr4Tv0wh2eHZyD_6rU1V-125" target="cr4Tv0wh2eHZyD_6rU1V-137">
          <mxGeometry relative="1" as="geometry">
            <mxPoint x="570" y="890" as="sourcePoint" />
            <mxPoint x="570" y="770" as="targetPoint" />
            <Array as="points" />
          </mxGeometry>
        </mxCell>
        <mxCell id="cr4Tv0wh2eHZyD_6rU1V-155" value="requirement" style="rounded=1;whiteSpace=wrap;html=1;" vertex="1" parent="1">
          <mxGeometry x="-310" y="740" width="150" height="100" as="geometry" />
        </mxCell>
        <mxCell id="cr4Tv0wh2eHZyD_6rU1V-156" value="awared_credit" style="ellipse;whiteSpace=wrap;html=1;rounded=1;" vertex="1" parent="1">
          <mxGeometry x="-463" y="775" width="100" height="50" as="geometry" />
        </mxCell>
        <mxCell id="cr4Tv0wh2eHZyD_6rU1V-157" value="time" style="ellipse;whiteSpace=wrap;html=1;rounded=1;" vertex="1" parent="1">
          <mxGeometry x="-463" y="840" width="100" height="50" as="geometry" />
        </mxCell>
        <mxCell id="cr4Tv0wh2eHZyD_6rU1V-158" value="" style="endArrow=none;html=1;rounded=1;entryX=1;entryY=0.5;entryDx=0;entryDy=0;exitX=0;exitY=0.75;exitDx=0;exitDy=0;" edge="1" parent="1" source="cr4Tv0wh2eHZyD_6rU1V-155" target="cr4Tv0wh2eHZyD_6rU1V-157">
          <mxGeometry width="50" height="50" relative="1" as="geometry">
            <mxPoint x="-495" y="865.0200000000001" as="sourcePoint" />
            <mxPoint x="-445" y="795" as="targetPoint" />
          </mxGeometry>
        </mxCell>
        <mxCell id="cr4Tv0wh2eHZyD_6rU1V-159" value="" style="endArrow=none;html=1;rounded=1;exitX=0;exitY=0.5;exitDx=0;exitDy=0;entryX=1;entryY=0.5;entryDx=0;entryDy=0;" edge="1" parent="1" source="cr4Tv0wh2eHZyD_6rU1V-155" target="cr4Tv0wh2eHZyD_6rU1V-156">
          <mxGeometry width="50" height="50" relative="1" as="geometry">
            <mxPoint x="-415" y="710" as="sourcePoint" />
            <mxPoint x="-475" y="715" as="targetPoint" />
          </mxGeometry>
        </mxCell>
        <mxCell id="cr4Tv0wh2eHZyD_6rU1V-160" value="req_id" style="ellipse;whiteSpace=wrap;html=1;rounded=1;" vertex="1" parent="1">
          <mxGeometry x="-463" y="710" width="100" height="50" as="geometry" />
        </mxCell>
        <mxCell id="cr4Tv0wh2eHZyD_6rU1V-161" value="" style="endArrow=none;html=1;rounded=1;exitX=0;exitY=0.25;exitDx=0;exitDy=0;entryX=1;entryY=0.5;entryDx=0;entryDy=0;" edge="1" parent="1" source="cr4Tv0wh2eHZyD_6rU1V-155" target="cr4Tv0wh2eHZyD_6rU1V-160">
          <mxGeometry width="50" height="50" relative="1" as="geometry">
            <mxPoint x="-515" y="920" as="sourcePoint" />
            <mxPoint x="-495" y="890" as="targetPoint" />
          </mxGeometry>
        </mxCell>
        <mxCell id="cr4Tv0wh2eHZyD_6rU1V-162" value="publish" style="shape=rhombus;perimeter=rhombusPerimeter;whiteSpace=wrap;html=1;align=center;rounded=1;" vertex="1" parent="1">
          <mxGeometry x="-280" y="660" width="80" height="40" as="geometry" />
        </mxCell>
        <mxCell id="cr4Tv0wh2eHZyD_6rU1V-163" value="" style="endArrow=none;html=1;rounded=0;exitX=0.5;exitY=0;exitDx=0;exitDy=0;entryX=0.75;entryY=1;entryDx=0;entryDy=0;" edge="1" parent="1" target="cr4Tv0wh2eHZyD_6rU1V-75" source="cr4Tv0wh2eHZyD_6rU1V-183">
          <mxGeometry relative="1" as="geometry">
            <mxPoint x="-200" y="905" as="sourcePoint" />
            <mxPoint x="210" y="790" as="targetPoint" />
            <Array as="points" />
          </mxGeometry>
        </mxCell>
        <mxCell id="cr4Tv0wh2eHZyD_6rU1V-164" value="publish" style="shape=rhombus;perimeter=rhombusPerimeter;whiteSpace=wrap;html=1;align=center;rounded=1;" vertex="1" parent="1">
          <mxGeometry x="50" y="660" width="80" height="40" as="geometry" />
        </mxCell>
        <mxCell id="cr4Tv0wh2eHZyD_6rU1V-165" value="" style="endArrow=none;html=1;rounded=0;exitX=1;exitY=0.25;exitDx=0;exitDy=0;entryX=0;entryY=1;entryDx=0;entryDy=0;" edge="1" parent="1" target="cr4Tv0wh2eHZyD_6rU1V-164" source="cr4Tv0wh2eHZyD_6rU1V-155">
          <mxGeometry relative="1" as="geometry">
            <mxPoint x="60" y="885" as="sourcePoint" />
            <mxPoint x="470" y="770" as="targetPoint" />
            <Array as="points" />
          </mxGeometry>
        </mxCell>
        <mxCell id="cr4Tv0wh2eHZyD_6rU1V-167" value="" style="endArrow=none;html=1;rounded=0;exitX=1;exitY=0;exitDx=0;exitDy=0;entryX=0.5;entryY=1;entryDx=0;entryDy=0;" edge="1" parent="1" source="cr4Tv0wh2eHZyD_6rU1V-164" target="cr4Tv0wh2eHZyD_6rU1V-64">
          <mxGeometry relative="1" as="geometry">
            <mxPoint x="170" y="690" as="sourcePoint" />
            <mxPoint x="170" y="670" as="targetPoint" />
            <Array as="points" />
          </mxGeometry>
        </mxCell>
        <mxCell id="cr4Tv0wh2eHZyD_6rU1V-168" value="" style="endArrow=none;html=1;rounded=0;exitX=0.5;exitY=0;exitDx=0;exitDy=0;entryX=0.25;entryY=1;entryDx=0;entryDy=0;" edge="1" parent="1" source="cr4Tv0wh2eHZyD_6rU1V-162" target="cr4Tv0wh2eHZyD_6rU1V-75">
          <mxGeometry relative="1" as="geometry">
            <mxPoint x="180" y="700" as="sourcePoint" />
            <mxPoint x="-240" y="640" as="targetPoint" />
            <Array as="points" />
          </mxGeometry>
        </mxCell>
        <mxCell id="cr4Tv0wh2eHZyD_6rU1V-169" value="publish" style="shape=rhombus;perimeter=rhombusPerimeter;whiteSpace=wrap;html=1;align=center;rounded=1;" vertex="1" parent="1">
          <mxGeometry x="400" y="690" width="80" height="40" as="geometry" />
        </mxCell>
        <mxCell id="cr4Tv0wh2eHZyD_6rU1V-170" value="" style="endArrow=none;html=1;rounded=0;exitX=1;exitY=0;exitDx=0;exitDy=0;entryX=0.25;entryY=1;entryDx=0;entryDy=0;" edge="1" parent="1" source="cr4Tv0wh2eHZyD_6rU1V-169" target="cr4Tv0wh2eHZyD_6rU1V-80">
          <mxGeometry relative="1" as="geometry">
            <mxPoint x="550" y="700" as="sourcePoint" />
            <mxPoint x="550" y="660" as="targetPoint" />
            <Array as="points" />
          </mxGeometry>
        </mxCell>
        <mxCell id="cr4Tv0wh2eHZyD_6rU1V-172" value="" style="endArrow=none;html=1;rounded=0;exitX=1;exitY=0.5;exitDx=0;exitDy=0;entryX=0;entryY=1;entryDx=0;entryDy=0;" edge="1" parent="1" source="cr4Tv0wh2eHZyD_6rU1V-155" target="cr4Tv0wh2eHZyD_6rU1V-169">
          <mxGeometry relative="1" as="geometry">
            <mxPoint x="590" y="870" as="sourcePoint" />
            <mxPoint x="630" y="740" as="targetPoint" />
            <Array as="points" />
          </mxGeometry>
        </mxCell>
        <mxCell id="cr4Tv0wh2eHZyD_6rU1V-178" value="" style="endArrow=none;html=1;rounded=1;entryX=0;entryY=0.75;entryDx=0;entryDy=0;exitX=1;exitY=0;exitDx=0;exitDy=0;" edge="1" parent="1" source="cr4Tv0wh2eHZyD_6rU1V-122" target="cr4Tv0wh2eHZyD_6rU1V-28">
          <mxGeometry width="50" height="50" relative="1" as="geometry">
            <mxPoint x="410" y="590" as="sourcePoint" />
            <mxPoint x="250" y="435" as="targetPoint" />
            <Array as="points" />
          </mxGeometry>
        </mxCell>
        <mxCell id="cr4Tv0wh2eHZyD_6rU1V-179" value="" style="endArrow=none;html=1;rounded=1;entryX=0.5;entryY=1;entryDx=0;entryDy=0;exitX=0.5;exitY=0;exitDx=0;exitDy=0;" edge="1" parent="1" source="cr4Tv0wh2eHZyD_6rU1V-64" target="cr4Tv0wh2eHZyD_6rU1V-121">
          <mxGeometry width="50" height="50" relative="1" as="geometry">
            <mxPoint x="160" y="560" as="sourcePoint" />
            <mxPoint x="160" y="440" as="targetPoint" />
          </mxGeometry>
        </mxCell>
        <mxCell id="cr4Tv0wh2eHZyD_6rU1V-121" value="belong" style="shape=rhombus;perimeter=rhombusPerimeter;whiteSpace=wrap;html=1;align=center;rounded=1;" vertex="1" parent="1">
<<<<<<< Updated upstream
          <mxGeometry x="115" y="460" width="80" height="40" as="geometry" />
=======
          <mxGeometry x="120" y="465" width="80" height="40" as="geometry" />
>>>>>>> Stashed changes
        </mxCell>
        <mxCell id="cr4Tv0wh2eHZyD_6rU1V-183" value="agree" style="shape=rhombus;perimeter=rhombusPerimeter;whiteSpace=wrap;html=1;align=center;rounded=1;" vertex="1" parent="1">
          <mxGeometry x="-190" y="660" width="80" height="40" as="geometry" />
        </mxCell>
        <mxCell id="cr4Tv0wh2eHZyD_6rU1V-185" value="" style="endArrow=none;html=1;rounded=0;exitX=0;exitY=0.25;exitDx=0;exitDy=0;entryX=1;entryY=1;entryDx=0;entryDy=0;" edge="1" parent="1" source="cr4Tv0wh2eHZyD_6rU1V-89" target="cr4Tv0wh2eHZyD_6rU1V-183">
          <mxGeometry relative="1" as="geometry">
            <mxPoint x="-90" y="700" as="sourcePoint" />
            <mxPoint x="-127" y="670" as="targetPoint" />
            <Array as="points" />
          </mxGeometry>
        </mxCell>
        <mxCell id="cr4Tv0wh2eHZyD_6rU1V-188" value="has" style="shape=rhombus;double=1;perimeter=rhombusPerimeter;whiteSpace=wrap;html=1;align=center;rounded=1;" vertex="1" parent="1">
          <mxGeometry x="320" y="880" width="80" height="45" as="geometry" />
        </mxCell>
        <mxCell id="cr4Tv0wh2eHZyD_6rU1V-190" value="" style="endArrow=none;html=1;rounded=0;exitX=0;exitY=0.75;exitDx=0;exitDy=0;entryX=1;entryY=0;entryDx=0;entryDy=0;" edge="1" parent="1" source="cr4Tv0wh2eHZyD_6rU1V-89" target="cr4Tv0wh2eHZyD_6rU1V-188">
          <mxGeometry relative="1" as="geometry">
            <mxPoint x="440" y="865" as="sourcePoint" />
            <mxPoint x="380" y="865" as="targetPoint" />
          </mxGeometry>
        </mxCell>
        <mxCell id="cr4Tv0wh2eHZyD_6rU1V-191" value="belong" style="shape=rhombus;perimeter=rhombusPerimeter;whiteSpace=wrap;html=1;align=center;rounded=1;" vertex="1" parent="1">
          <mxGeometry x="32.5" y="930" width="80" height="40" as="geometry" />
        </mxCell>
        <mxCell id="cr4Tv0wh2eHZyD_6rU1V-193" value="" style="endArrow=none;html=1;rounded=0;exitX=0;exitY=0.5;exitDx=0;exitDy=0;entryX=1;entryY=0.5;entryDx=0;entryDy=0;" edge="1" parent="1" source="cr4Tv0wh2eHZyD_6rU1V-114" target="cr4Tv0wh2eHZyD_6rU1V-191">
          <mxGeometry relative="1" as="geometry">
            <mxPoint x="-2" y="960" as="sourcePoint" />
            <mxPoint x="80" y="950" as="targetPoint" />
          </mxGeometry>
        </mxCell>
<<<<<<< Updated upstream
        <mxCell id="cr4Tv0wh2eHZyD_6rU1V-195" value="" style="endArrow=none;html=1;rounded=1;exitX=0;exitY=0.5;exitDx=0;exitDy=0;entryX=1;entryY=0.5;entryDx=0;entryDy=0;" edge="1" parent="1" source="cr4Tv0wh2eHZyD_6rU1V-207" target="cr4Tv0wh2eHZyD_6rU1V-64">
=======
        <mxCell id="cr4Tv0wh2eHZyD_6rU1V-195" value="" style="endArrow=none;html=1;rounded=1;exitX=0;exitY=0;exitDx=0;exitDy=0;entryX=1;entryY=0.5;entryDx=0;entryDy=0;" edge="1" parent="1" source="cr4Tv0wh2eHZyD_6rU1V-207" target="cr4Tv0wh2eHZyD_6rU1V-64">
>>>>>>> Stashed changes
          <mxGeometry width="50" height="50" relative="1" as="geometry">
            <mxPoint x="260" y="625" as="sourcePoint" />
            <mxPoint x="450" y="610" as="targetPoint" />
            <Array as="points" />
          </mxGeometry>
        </mxCell>
        <mxCell id="cr4Tv0wh2eHZyD_6rU1V-196" value="" style="endArrow=none;html=1;rounded=1;exitX=0;exitY=0.5;exitDx=0;exitDy=0;entryX=1;entryY=0.5;entryDx=0;entryDy=0;" edge="1" parent="1" source="cr4Tv0wh2eHZyD_6rU1V-80" target="cr4Tv0wh2eHZyD_6rU1V-207">
          <mxGeometry width="50" height="50" relative="1" as="geometry">
            <mxPoint x="485" y="620" as="sourcePoint" />
            <mxPoint x="360" y="625" as="targetPoint" />
            <Array as="points" />
          </mxGeometry>
        </mxCell>
        <mxCell id="cr4Tv0wh2eHZyD_6rU1V-199" value="login_record" style="rounded=1;whiteSpace=wrap;html=1;" vertex="1" parent="1">
          <mxGeometry x="-493" y="595" width="160" height="60" as="geometry" />
        </mxCell>
        <mxCell id="cr4Tv0wh2eHZyD_6rU1V-203" value="time" style="ellipse;whiteSpace=wrap;html=1;rounded=1;" vertex="1" parent="1">
          <mxGeometry x="-400" y="520" width="100" height="50" as="geometry" />
        </mxCell>
        <mxCell id="cr4Tv0wh2eHZyD_6rU1V-205" value="log_id" style="ellipse;whiteSpace=wrap;html=1;rounded=1;" vertex="1" parent="1">
          <mxGeometry x="-520" y="520" width="100" height="50" as="geometry" />
        </mxCell>
        <mxCell id="cr4Tv0wh2eHZyD_6rU1V-206" value="" style="endArrow=none;html=1;rounded=0;exitX=0.5;exitY=0;exitDx=0;exitDy=0;entryX=0.5;entryY=1;entryDx=0;entryDy=0;" edge="1" parent="1" source="cr4Tv0wh2eHZyD_6rU1V-155" target="cr4Tv0wh2eHZyD_6rU1V-162">
          <mxGeometry relative="1" as="geometry">
            <mxPoint x="-170" y="700" as="sourcePoint" />
            <mxPoint x="-192" y="660" as="targetPoint" />
            <Array as="points" />
          </mxGeometry>
        </mxCell>
<<<<<<< Updated upstream
        <mxCell id="cr4Tv0wh2eHZyD_6rU1V-207" value="give credit" style="shape=rhombus;perimeter=rhombusPerimeter;whiteSpace=wrap;html=1;align=center;rounded=1;" vertex="1" parent="1">
          <mxGeometry x="260" y="540" width="80" height="40" as="geometry" />
        </mxCell>
        <mxCell id="cr4Tv0wh2eHZyD_6rU1V-208" value="give credit" style="shape=rhombus;perimeter=rhombusPerimeter;whiteSpace=wrap;html=1;align=center;rounded=1;" vertex="1" parent="1">
=======
        <mxCell id="cr4Tv0wh2eHZyD_6rU1V-207" value="give_credit" style="shape=rhombus;perimeter=rhombusPerimeter;whiteSpace=wrap;html=1;align=center;rounded=1;" vertex="1" parent="1">
          <mxGeometry x="250" y="550" width="80" height="40" as="geometry" />
        </mxCell>
        <mxCell id="cr4Tv0wh2eHZyD_6rU1V-208" value="give_credit" style="shape=rhombus;perimeter=rhombusPerimeter;whiteSpace=wrap;html=1;align=center;rounded=1;" vertex="1" parent="1">
>>>>>>> Stashed changes
          <mxGeometry x="-110" y="620" width="80" height="40" as="geometry" />
        </mxCell>
        <mxCell id="cr4Tv0wh2eHZyD_6rU1V-209" value="" style="endArrow=none;html=1;rounded=1;exitX=0;exitY=0.5;exitDx=0;exitDy=0;entryX=1;entryY=0.75;entryDx=0;entryDy=0;" edge="1" parent="1" source="cr4Tv0wh2eHZyD_6rU1V-208" target="cr4Tv0wh2eHZyD_6rU1V-75">
          <mxGeometry width="50" height="50" relative="1" as="geometry">
            <mxPoint x="475" y="610" as="sourcePoint" />
            <mxPoint x="360" y="610" as="targetPoint" />
            <Array as="points" />
          </mxGeometry>
        </mxCell>
        <mxCell id="cr4Tv0wh2eHZyD_6rU1V-210" value="" style="endArrow=none;html=1;rounded=1;entryX=1;entryY=0.5;entryDx=0;entryDy=0;exitX=0;exitY=0.75;exitDx=0;exitDy=0;" edge="1" parent="1" source="cr4Tv0wh2eHZyD_6rU1V-80" target="cr4Tv0wh2eHZyD_6rU1V-208">
          <mxGeometry width="50" height="50" relative="1" as="geometry">
            <mxPoint x="460" y="600" as="sourcePoint" />
            <mxPoint x="370" y="620" as="targetPoint" />
            <Array as="points" />
          </mxGeometry>
        </mxCell>
        <mxCell id="cr4Tv0wh2eHZyD_6rU1V-212" value="" style="endArrow=none;html=1;rounded=1;entryX=0.5;entryY=1;entryDx=0;entryDy=0;" edge="1" parent="1" source="cr4Tv0wh2eHZyD_6rU1V-199" target="cr4Tv0wh2eHZyD_6rU1V-205">
          <mxGeometry width="50" height="50" relative="1" as="geometry">
            <mxPoint x="-230" y="560" as="sourcePoint" />
            <mxPoint x="-240" y="530" as="targetPoint" />
          </mxGeometry>
        </mxCell>
        <mxCell id="cr4Tv0wh2eHZyD_6rU1V-213" value="" style="endArrow=none;html=1;rounded=1;entryX=0.5;entryY=1;entryDx=0;entryDy=0;exitX=0.75;exitY=0;exitDx=0;exitDy=0;" edge="1" parent="1" source="cr4Tv0wh2eHZyD_6rU1V-199" target="cr4Tv0wh2eHZyD_6rU1V-203">
          <mxGeometry width="50" height="50" relative="1" as="geometry">
            <mxPoint x="-220" y="570" as="sourcePoint" />
            <mxPoint x="-230" y="540" as="targetPoint" />
          </mxGeometry>
        </mxCell>
        <mxCell id="cr4Tv0wh2eHZyD_6rU1V-221" style="edgeStyle=orthogonalEdgeStyle;rounded=1;orthogonalLoop=1;jettySize=auto;html=1;exitX=0.5;exitY=1;exitDx=0;exitDy=0;" edge="1" parent="1" source="cr4Tv0wh2eHZyD_6rU1V-208" target="cr4Tv0wh2eHZyD_6rU1V-208">
          <mxGeometry relative="1" as="geometry" />
        </mxCell>
      </root>
    </mxGraphModel>
  </diagram>
</mxfile>
